<svg width="101" height="53" viewBox="0 0 101 53" fill="none" xmlns="http://www.w3.org/2000/svg">
<path fill-rule="evenodd" clip-rule="evenodd" d="M0.573242 0.805298H18.7016C31.7198 0.805298 41.0134 13.1766 41.0134 24.8409V28.5385C41.0134 40.2027 31.7198 52.5742 18.7016 52.5742H0.573242V0.805298ZM38.2244 24.8409C38.2244 14.3185 29.8148 3.57863 18.7016 3.57863H3.36222V49.8008H18.7016C29.8148 49.8008 38.2244 39.061 38.2244 28.5386V24.8409Z" fill="#1E0606"/>
<path d="M47.0562 0.805298H49.8451V50.032H64.7197V52.8053H47.0562V0.805298Z" fill="#1E0606"/>
<path d="M68.4383 0.805298V52.5742H71.2273V28.1886L71.9118 27.5078L96.7433 52.5742H100.658L73.884 25.5467L98.765 0.805298H94.8208L71.2273 24.2665V0.805298H68.4383Z" fill="#1E0606"/>
</svg>
